<svg height="464pt" viewBox="0 0 464 464" width="464pt" xmlns="http://www.w3.org/2000/svg"><path d="m352 96h32v96h-32zm0 0" fill="#ed1c24"/><path d="m208 96v256h80v-128c0-17.671875 14.328125-32 32-32h32v-96zm0 0" fill="#f1f2f2"/><path d="m32 96h144v256h-144zm0 0" fill="#f1f2f2"/><path d="m432 192h-112c-17.671875 0-32 14.328125-32 32v16h176v-16c0-17.671875-14.328125-32-32-32zm0 0" fill="#006df0"/><path d="m288 416v16c0 17.671875 14.328125 32 32 32h112c17.671875 0 32-14.328125 32-32v-16zm0 0" fill="#006df0"/><path d="m288 240v176h176v-176zm0 0" fill="#f1f2f2"/><path d="m208 352h-208v32h288v-32zm0 0" fill="#5eac24"/><path d="m176 96h208v-32h-384v32zm0 0" fill="#57a4ff"/><path d="m0 96h32v256h-32zm0 0" fill="#ed1c24"/><path d="m0 32h384v32h-384zm0 0" fill="#2488ff"/><path d="m0 0h384v32h-384zm0 0" fill="#006df0"/><path d="m176 96h32v256h-32zm0 0" fill="#be1e2d"/><path d="m288 304v112h128c-61.902344 0-128-50.097656-128-112zm0 0" fill="#d1d3d4"/><path d="m368 208c-4.417969 0-8 3.582031-8 8s3.582031 8 8 8h16c4.417969 0 8-3.582031 8-8s-3.582031-8-8-8zm0 0" fill="#f1f2f2"/><path d="m392 432h-32c-4.417969 0-8 3.582031-8 8s3.582031 8 8 8h32c4.417969 0 8-3.582031 8-8s-3.582031-8-8-8zm0 0" fill="#f1f2f2"/><path d="m143.601562 204.289062-33.945312-33.945312c-3.125-3.121094-8.1875-3.121094-11.3125 0l-33.945312 33.945312c-2.078126 2.007813-2.914063 4.980469-2.179688 7.777344.730469 2.796875 2.917969 4.984375 5.714844 5.714844 2.796875.734375 5.769531-.101562 7.777344-2.179688l20.289062-20.289062v84.6875c0 4.417969 3.582031 8 8 8s8-3.582031 8-8v-84.6875l20.289062 20.289062c2.007813 2.078126 4.980469 2.914063 7.777344 2.179688 2.796875-.730469 4.984375-2.917969 5.714844-5.714844.734375-2.796875-.101562-5.769531-2.179688-7.777344zm0 0" fill="#5eac24"/><path d="m359.03125 292.289062 8.96875-8.96875v28.679688c0 4.417969 3.582031 8 8 8s8-3.582031 8-8v-28.679688l8.96875 8.96875c2.007812 2.078126 4.980469 2.914063 7.78125 2.179688 2.796875-.730469 4.980469-2.914062 5.710938-5.710938.734374-2.796874-.101563-5.773437-2.179688-7.78125l-22.617188-22.625c-1.5-1.503906-3.539062-2.351562-5.664062-2.351562s-4.164062.847656-5.664062 2.351562l-22.617188 22.625c-2.078125 2.007813-2.914062 4.984376-2.179688 7.78125.730469 2.796876 2.914063 4.980469 5.710938 5.710938 2.800781.734375 5.773438-.101562 7.78125-2.179688zm0 0" fill="#5eac24"/><path d="m370.335938 397.648438c.738281.738281 1.617187 1.324218 2.585937 1.726562 1.96875.832031 4.1875.832031 6.15625 0 .96875-.402344 1.847656-.988281 2.585937-1.726562l22.617188-22.625c2.078125-2.007813 2.914062-4.984376 2.179688-7.78125-.730469-2.796876-2.914063-4.980469-5.710938-5.710938-2.800781-.734375-5.773438.101562-7.78125 2.179688l-8.96875 8.96875v-28.679688c0-4.417969-3.582031-8-8-8s-8 3.582031-8 8v28.679688l-8.96875-8.96875c-2.007812-2.078126-4.980469-2.914063-7.78125-2.179688-2.796875.730469-4.980469 2.914062-5.710938 5.710938-.734374 2.796874.101563 5.773437 2.179688 7.78125zm0 0" fill="#ed1c24"/><g fill="#006df0"><path d="m296 136c0-4.417969-3.582031-8-8-8-30.914062.035156-55.964844 25.085938-56 56 0 4.417969 3.582031 8 8 8s8-3.582031 8-8c.027344-22.082031 17.917969-39.972656 40-40 4.417969 0 8-3.582031 8-8zm0 0"/><path d="m280 184c0-4.417969 3.582031-8 8-8s8-3.582031 8-8-3.582031-8-8-8c-13.253906 0-24 10.746094-24 24 0 4.417969 3.582031 8 8 8s8-3.582031 8-8zm0 0"/></g></svg>